<?xml version="1.0" encoding="utf-8"?>
<!-- Generated by IcoMoon.io -->
<!DOCTYPE svg PUBLIC "-//W3C//DTD SVG 1.1//EN" "http://www.w3.org/Graphics/SVG/1.1/DTD/svg11.dtd">
<svg version="1.1" xmlns="http://www.w3.org/2000/svg" xmlns:xlink="http://www.w3.org/1999/xlink" width="66" height="32" viewBox="0 0 66 32">
<path d="M21.443 4.619c-0.308 0.308-0.33 0.55-0.33 3.679 0 3.314-0.004 3.355-0.412 3.908-0.44 0.596-0.543 1.453-0.214 1.781 0.284 0.284 13.175 0.284 13.46 0 0.325-0.325 0.225-1.108-0.214-1.684-0.408-0.535-0.412-0.575-0.412-3.843 0-3.091-0.022-3.33-0.342-3.737l-0.342-0.435h-5.431c-5.211 0-5.445 0.013-5.761 0.33zM32 8.66v3.052h-9.567v-6.103h9.567v3.052zM27.381 6.188c0 0.247 0.039 0.255 0.289 0.062 0.275-0.213 0.275-0.207 0 0.116-0.596 0.702-0.26 0.986 0.37 0.315 0.437-0.466 0.425-0.507-0.206-0.665-0.364-0.091-0.453-0.057-0.453 0.172zM26.422 6.448c-1.462 0.3-2.255 2.055-1.556 3.445 1.033 2.056 4.144 1.634 4.595-0.624l0.106-0.527h-2.502l-0.096-2.406-0.547 0.112zM27.992 6.894c-0.878 0.899-0.756 1.235 0.131 0.364 0.408-0.401 0.742-0.787 0.742-0.859 0-0.271-0.282-0.111-0.874 0.495zM28.16 7.386c-0.926 0.94-0.945 1.027-0.234 1.027 0.719 0 1.772-1.009 1.501-1.438-0.292-0.462-0.46-0.408-1.267 0.412zM29.108 7.923l-0.468 0.489h0.608c0.535 0 0.608-0.049 0.608-0.403 0-0.604-0.227-0.63-0.748-0.086zM28.289 13.196c-0.056 0.091-0.58 0.165-1.164 0.165-0.598 0-1.062-0.072-1.062-0.165 0-0.094 0.498-0.165 1.164-0.165 0.734 0 1.127 0.061 1.062 0.165zM35.794 20.948v2.639h0.99v-5.278h-0.99v2.639zM37.608 20.955v2.646l0.701-0.013c0.386-0.007 0.961 0.029 1.278 0.081 1.912 0.31 2.884-2.733 1.158-3.626-0.558-0.289-1.37-0.323-1.829-0.078-0.298 0.159-0.319 0.109-0.319-0.742 0-0.904-0.005-0.913-0.495-0.913h-0.495v2.646zM4.948 21.129v2.49l3.325-0.113 0.541-0.59c1.833-2.001 0.37-4.272-2.752-4.275l-1.113-0.001v2.49zM14.351 19.216c0 0.403-0.075 0.577-0.247 0.577-0.154 0-0.247 0.156-0.247 0.412s0.094 0.412 0.247 0.412c0.196 0 0.247 0.239 0.247 1.162 0 1.014 0.052 1.214 0.405 1.567 0.579 0.579 1.904 0.469 1.904-0.158 0-0.342-0.389-0.594-0.66-0.427-0.426 0.263-0.66-0.153-0.66-1.175 0-0.967 0.001-0.97 0.495-0.97 0.418 0 0.495-0.064 0.495-0.412s-0.077-0.412-0.495-0.412c-0.456 0-0.495-0.046-0.495-0.577s-0.039-0.577-0.495-0.577c-0.456 0-0.495 0.046-0.495 0.577zM22.598 19.134c0 0.477 0.028 0.495 0.742 0.495h0.742v3.959h1.155v-3.959h0.742c0.715 0 0.742-0.018 0.742-0.495v-0.495h-4.124v0.495zM7.644 19.812c1.445 0.658 0.834 2.749-0.85 2.911l-0.856 0.082v-3.176h0.652c0.359 0 0.833 0.082 1.054 0.183zM10.68 19.985c-0.473 0.173-0.553 0.386-0.298 0.789 0.123 0.194 0.23 0.202 0.582 0.041 0.785-0.358 1.406-0.184 1.406 0.394 0 0.038-0.361 0.069-0.802 0.069-1.34 0-2.027 0.842-1.497 1.833 0.266 0.497 0.886 0.652 2.145 0.535l1.144-0.106v-1.531c0-2.070-0.832-2.698-2.68-2.023zM17.445 20.052c-0.557 0.302-0.311 0.994 0.287 0.807 0.803-0.25 1.090-0.267 1.321-0.075 0.422 0.35 0.275 0.494-0.507 0.494-1.209 0-1.714 0.368-1.719 1.253-0.004 0.748 0.505 1.136 1.454 1.109 0.424-0.012 1.049-0.026 1.389-0.030l0.619-0.009v-1.499c0-2.154-1.139-2.975-2.844-2.050zM27.61 19.955c-0.96 0.388-1.406 2.066-0.785 2.953 0.839 1.198 2.915 1.027 3.599-0.295 0.877-1.695-0.943-3.414-2.814-2.658zM31.961 20.052c-1.308 0.71-1.223 2.804 0.139 3.451 1.865 0.885 3.714-0.925 2.784-2.724-0.47-0.909-1.921-1.27-2.923-0.726zM43.116 19.955c-0.96 0.388-1.406 2.066-0.785 2.953 0.839 1.198 2.915 1.027 3.599-0.295 0.877-1.695-0.943-3.414-2.815-2.658zM46.186 19.837c0 0.024 0.289 0.448 0.642 0.942l0.642 0.899-1.297 1.909h0.666c0.366 0 0.668-0.056 0.67-0.124s0.14-0.301 0.307-0.518l0.303-0.394 0.306 0.518c0.257 0.436 0.405 0.518 0.93 0.518 0.759 0 0.758 0.023 0.047-0.968-0.318-0.442-0.577-0.859-0.577-0.927s0.26-0.477 0.577-0.91c0.707-0.963 0.708-0.989 0.041-0.991-0.404-0.001-0.643 0.129-0.969 0.526l-0.434 0.527-0.272-0.526c-0.229-0.443-1.583-0.855-1.583-0.482zM29.159 20.875c0.251 0.176 0.367 0.426 0.367 0.793 0 1.026-0.8 1.503-1.541 0.92-1.101-0.866 0.030-2.515 1.174-1.713zM33.802 21.053c0.867 1.102-0.416 2.451-1.397 1.47-0.669-0.669-0.237-1.904 0.667-1.904 0.223 0 0.534 0.185 0.73 0.435zM40.247 20.948c0.612 0.612 0.135 1.979-0.69 1.979-0.274 0-0.96-0.804-0.96-1.125 0-0.914 1.048-1.456 1.65-0.854zM44.664 20.875c0.251 0.176 0.367 0.426 0.367 0.793 0 1.026-0.8 1.503-1.541 0.92-1.101-0.866 0.030-2.515 1.174-1.713zM12.371 22.174c0 0.635-0.93 0.976-1.334 0.489-0.187-0.226-0.173-0.3 0.094-0.495 0.418-0.306 1.241-0.302 1.241 0.006zM19.299 22.131c0 0.302-0.516 0.797-0.83 0.797-0.45 0-0.74-0.44-0.489-0.742 0.242-0.292 1.32-0.337 1.32-0.054zM42.895 25.196c0.088 0.868-0.022 1.526-0.256 1.526-0.303 0-0.338-0.755-0.041-0.894 0.165-0.077 0.165-0.115 0-0.192-0.113-0.053-0.206-0.201-0.206-0.33 0-0.344-0.443-0.285-0.536 0.071-0.062 0.237-0.194 0.288-0.598 0.229-0.288-0.042-0.631 0.017-0.771 0.134-0.191 0.159-0.299 0.163-0.444 0.019-0.249-0.249-0.995-0.245-1.247 0.007-0.154 0.154-0.198 0.099-0.198-0.247 0-0.335-0.081-0.445-0.33-0.445-0.293 0-0.33 0.11-0.33 0.99s0.037 0.99 0.33 0.99c0.181 0 0.331-0.093 0.332-0.206 0.002-0.162 0.030-0.162 0.131-0.004 0.251 0.396 1.346 0.333 1.364-0.078 0.009-0.189 0.043-0.214 0.1-0.072 0.207 0.517 1.537 0.593 1.537 0.088 0-0.157-0.149-0.219-0.454-0.187-0.665 0.070-0.593-0.405 0.082-0.544 0.518-0.106 0.536-0.091 0.536 0.429 0 0.296 0.093 0.574 0.206 0.617 0.378 0.143 1.278-0.074 1.278-0.309 0-0.161 0.097-0.131 0.33 0.101 0.397 0.397 0.633 0.413 1.118 0.073 0.206-0.144 0.367-0.18 0.367-0.082 0 0.096 0.148 0.174 0.33 0.174 0.257 0 0.33-0.11 0.33-0.495 0-0.272 0.074-0.495 0.165-0.495s0.165 0.223 0.165 0.495c0 0.385 0.073 0.495 0.33 0.495 0.263 0 0.33-0.11 0.33-0.544 0-0.708-0.253-0.94-1.023-0.94-0.378 0-0.627 0.079-0.627 0.198 0 0.154-0.044 0.154-0.198 0-0.328-0.328-1.077-0.235-1.36 0.169-0.25 0.356-0.257 0.347-0.257-0.33 0-0.522-0.065-0.697-0.258-0.697-0.147 0-0.245 0.124-0.228 0.289zM27.381 26.040v1.011h0.733c0.403 0 0.778-0.073 0.833-0.163 0.063-0.102 0.237-0.075 0.463 0.070 0.646 0.416 1.265 0.156 1.296-0.545l0.026-0.599 0.066 0.536c0.094 0.759 0.354 0.846 2.149 0.726 0.304-0.020 0.371-0.122 0.369-0.561-0.004-0.763-0.199-0.982-0.841-0.946-0.854 0.048-0.971 0.018-0.971-0.25 0-0.352-0.606-0.307-0.7 0.052-0.062 0.236-0.202 0.285-0.659 0.232-0.619-0.072-0.994 0.225-0.6 0.474 0.18 0.114 0.167 0.145-0.061 0.147-0.173 0.002-0.289-0.121-0.289-0.307 0-0.435-0.373-0.695-1.148-0.799l-0.666-0.089v1.011zM37.273 25.608c-0.004 0.421-0.039 0.478-0.163 0.266-0.215-0.367-2.529-0.391-2.89-0.029-0.613 0.613 0.191 1.604 1.003 1.234 0.3-0.136 0.512-0.136 0.811 0 0.325 0.148 0.489 0.13 0.825-0.090 0.231-0.151 0.419-0.199 0.419-0.106s0.111 0.169 0.247 0.169c0.193 0 0.247-0.22 0.247-0.99s-0.055-0.99-0.247-0.99c-0.168 0-0.249 0.172-0.252 0.536zM52.783 25.299c0 0.125-0.223 0.271-0.495 0.326-0.321 0.064-0.498 0.202-0.505 0.392-0.008 0.229-0.043 0.212-0.16-0.078-0.108-0.268-0.285-0.371-0.64-0.371-0.532 0-0.839 0.291-0.517 0.49 0.148 0.091 0.135 0.148-0.051 0.22-0.171 0.066-0.267-0.019-0.303-0.266-0.047-0.329-0.159-0.366-1.247-0.411l-1.196-0.049v0.75c0 0.556 0.064 0.75 0.247 0.75 0.165 0 0.247-0.165 0.247-0.495s0.082-0.495 0.247-0.495c0.165 0 0.247 0.165 0.247 0.495s0.082 0.495 0.247 0.495c0.165 0 0.247-0.165 0.247-0.495s0.082-0.495 0.247-0.495c0.165 0 0.247 0.165 0.247 0.493 0 0.404 0.067 0.491 0.371 0.484 0.204-0.005 0.482 0.008 0.619 0.028 0.671 0.1 0.99-0.023 1-0.386 0.010-0.368 0.012-0.368 0.151-0.023 0.227 0.561 1.648 0.704 1.655 0.167 0.002-0.124 0.045-0.118 0.131 0.017 0.127 0.2 0.514 0.287 1.049 0.236 0.357-0.034 0.569-0.942 0.296-1.27-0.242-0.291-1.007-0.317-1.281-0.043-0.154 0.154-0.198 0.099-0.198-0.247 0-0.335-0.081-0.445-0.33-0.445-0.181 0-0.33 0.102-0.33 0.227zM28.591 25.924c0.125 0.199 0.113 0.347-0.044 0.536-0.379 0.456-0.671 0.313-0.671-0.328s0.374-0.75 0.715-0.208zM55.95 25.765c-0.224 0.224-0.257 0.774-0.065 1.076 0.251 0.396 1.346 0.333 1.364-0.078 0.010-0.23 0.032-0.238 0.107-0.041 0.165 0.434 0.421 0.467 2.643 0.341 0.264-0.015 0.271-0.787 0.008-0.875-0.143-0.048-0.147-0.098-0.013-0.18 0.114-0.071 0.261 0.116 0.383 0.488 0.172 0.52 0.162 0.623-0.073 0.754-0.328 0.184-0.195 0.462 0.22 0.462 0.392 0 0.572-0.233 0.984-1.279 0.366-0.929-0.031-1.386-0.429-0.494l-0.166 0.371-0.118-0.371c-0.136-0.427-1.628-0.562-1.814-0.165-0.077 0.165-0.115 0.165-0.192 0-0.1-0.214-1.086-0.289-1.277-0.098-0.060 0.060-0.026 0.208 0.075 0.33s0.118 0.221 0.038 0.221-0.238-0.148-0.352-0.33c-0.231-0.371-1.009-0.448-1.325-0.132zM32.082 26.062c0.056 0.091 0.023 0.165-0.073 0.165s-0.175 0.111-0.175 0.247c0 0.136-0.074 0.247-0.165 0.247s-0.165-0.186-0.165-0.412c0-0.414 0.375-0.575 0.577-0.247zM35.546 26.275c0 0.295-0.090 0.377-0.41 0.371-0.605-0.010-0.65-0.541-0.053-0.63 0.255-0.038 0.463-0.081 0.463-0.094s0 0.145 0 0.354zM36.619 26.401c0 0.344-0.243 0.43-0.417 0.147-0.15-0.242 0.050-0.695 0.251-0.57 0.091 0.056 0.166 0.247 0.166 0.423zM52.783 26.401c0 0.344-0.243 0.43-0.417 0.147-0.15-0.242 0.050-0.695 0.251-0.57 0.091 0.056 0.166 0.247 0.166 0.423zM44.598 26.194c0.13 0.211-0.172 0.581-0.373 0.457-0.265-0.164-0.226-0.589 0.054-0.589 0.131 0 0.274 0.059 0.319 0.132z"></path>
</svg>
